<svg width="407" height="400" viewBox="0 0 407 400" fill="none" xmlns="http://www.w3.org/2000/svg">
<g clip-path="url(#clip0_1_4)">
<path d="M384.559 210.346C384.614 260.36 366.846 308.45 334.989 344.507C333.069 346.694 331.096 348.829 329.072 350.912C325.988 354.103 322.801 357.171 319.509 360.116C288.721 387.714 250.285 403.223 210.402 404.139C209.073 404.172 207.739 404.189 206.4 404.189C174.592 404.189 134.586 385.704 98.2802 360.116C95.2764 357.999 92.2994 355.833 89.3492 353.618C87.9702 352.592 86.5978 351.552 85.2322 350.497C71.2296 339.74 57.9383 327.926 45.4564 315.143C37.284 306.798 29.6205 297.883 22.5146 288.453C-5.38167 251.014 -11.5346 217.281 28.2362 210.346C32.9449 209.528 37.5149 208.653 41.9461 207.722C48.3649 206.38 54.5077 204.93 60.3748 203.374C68.2778 201.284 75.7028 199.018 82.6497 196.575C84.9865 195.757 87.2698 194.922 89.4996 194.071C122.466 181.474 144.53 165.046 159.549 147.222C162.096 144.204 164.445 141.151 166.594 138.061C169.883 133.358 172.87 128.414 175.535 123.265C179.213 116.11 182.302 108.615 184.767 100.868L184.902 100.443C196.852 62.9389 193.217 28.1522 206.4 16.5093C262.754 -33.2648 332.913 37.6181 365.844 121.208C367.504 125.42 369.065 129.657 370.528 133.92C371.185 135.824 371.818 137.732 372.428 139.643C374.033 144.624 375.489 149.618 376.796 154.625C377.298 156.535 377.776 158.442 378.23 160.348C378.717 162.405 379.183 164.457 379.614 166.508C382.819 181.528 384.559 196.341 384.559 210.346Z" fill="#E153ED"/>
<path d="M200.95 404.137C199.685 404.171 198.414 404.188 197.139 404.188C166.852 404.188 128.758 384.837 94.1883 358.049C91.3281 355.833 88.4934 353.566 85.6842 351.247L88.1481 333.312L162.736 321.466L200.172 355.708L200.95 404.137Z" fill="#2F2E41"/>
<path d="M204.375 97.2151H193.723C193.393 97.2153 193.077 97.3633 192.844 97.6265C192.61 97.8897 192.479 98.2467 192.479 98.6189V110.643C192.479 110.827 192.512 111.009 192.574 111.179C192.637 111.349 192.729 111.504 192.844 111.634C192.96 111.763 193.097 111.866 193.248 111.936C193.399 112.006 193.56 112.042 193.723 112.042H204.375C204.704 112.042 205.02 111.895 205.253 111.633C205.487 111.37 205.618 111.015 205.619 110.643V98.6189C205.618 98.2469 205.487 97.8905 205.254 97.6275C205.021 97.3644 204.705 97.2162 204.375 97.2151Z" fill="white"/>
<path d="M204.375 117.706H193.723C193.393 117.706 193.077 117.854 192.844 118.117C192.61 118.38 192.479 118.737 192.479 119.11V131.134C192.479 131.318 192.512 131.5 192.574 131.67C192.637 131.84 192.729 131.994 192.844 132.124C192.96 132.254 193.097 132.357 193.248 132.427C193.399 132.497 193.56 132.533 193.723 132.532H204.375C204.704 132.532 205.02 132.385 205.253 132.123C205.487 131.861 205.618 131.505 205.619 131.134V119.11C205.618 118.738 205.487 118.381 205.254 118.118C205.021 117.855 204.705 117.707 204.375 117.706Z" fill="#E6E6E6"/>
<path d="M204.375 138.196H193.723C193.393 138.196 193.077 138.344 192.844 138.608C192.61 138.871 192.479 139.228 192.479 139.6V151.619C192.479 151.803 192.511 151.986 192.573 152.157C192.636 152.327 192.727 152.482 192.843 152.612C192.958 152.743 193.096 152.846 193.247 152.917C193.398 152.987 193.56 153.023 193.723 153.023H204.375C204.705 153.023 205.021 152.875 205.255 152.611C205.488 152.348 205.619 151.991 205.619 151.619V139.6C205.618 139.228 205.487 138.872 205.254 138.609C205.021 138.346 204.705 138.197 204.375 138.196Z" fill="#E6E6E6"/>
<path d="M205.6 159.842C205.547 159.519 205.396 159.227 205.172 159.016C204.948 158.805 204.667 158.688 204.375 158.687H193.723C193.393 158.687 193.077 158.835 192.844 159.098C192.611 159.361 192.479 159.718 192.479 160.091V172.11C192.479 172.294 192.511 172.477 192.573 172.647C192.636 172.818 192.727 172.973 192.843 173.103C192.958 173.233 193.096 173.337 193.247 173.407C193.398 173.478 193.56 173.514 193.723 173.513H204.375C204.705 173.513 205.021 173.365 205.255 173.102C205.488 172.839 205.619 172.482 205.619 172.11V160.091C205.62 160.007 205.614 159.924 205.6 159.842Z" fill="#E6E6E6"/>
<path d="M204.859 179.285C204.705 179.214 204.541 179.177 204.375 179.177H193.723C193.56 179.177 193.398 179.213 193.247 179.283C193.096 179.354 192.959 179.457 192.843 179.588C192.727 179.718 192.636 179.873 192.573 180.043C192.511 180.214 192.479 180.397 192.479 180.581V192.6C192.479 192.785 192.51 192.968 192.572 193.138C192.635 193.309 192.726 193.464 192.842 193.595C192.958 193.725 193.095 193.828 193.246 193.899C193.398 193.969 193.56 194.005 193.723 194.004H204.375C204.705 194.004 205.022 193.856 205.255 193.593C205.488 193.329 205.619 192.972 205.619 192.6V180.581C205.619 180.305 205.546 180.035 205.411 179.804C205.276 179.574 205.084 179.394 204.859 179.285Z" fill="#E6E6E6"/>
<path d="M226.751 97.2151H216.099C215.769 97.2153 215.453 97.3633 215.219 97.6265C214.986 97.8897 214.855 98.2467 214.855 98.6189V110.643C214.855 110.827 214.887 111.009 214.95 111.179C215.013 111.349 215.104 111.504 215.22 111.634C215.335 111.763 215.473 111.866 215.623 111.936C215.774 112.006 215.936 112.042 216.099 112.042H226.751C227.08 112.042 227.396 111.895 227.629 111.633C227.862 111.37 227.994 111.015 227.995 110.643V98.6189C227.994 98.2469 227.863 97.8905 227.63 97.6275C227.396 97.3644 227.081 97.2162 226.751 97.2151Z" fill="#E6E6E6"/>
<path d="M226.751 117.706H216.099C215.769 117.706 215.453 117.854 215.219 118.117C214.986 118.38 214.855 118.737 214.855 119.11V131.134C214.855 131.318 214.887 131.5 214.95 131.67C215.013 131.84 215.104 131.994 215.22 132.124C215.335 132.254 215.473 132.357 215.623 132.427C215.774 132.497 215.936 132.533 216.099 132.532H226.751C227.08 132.532 227.396 132.385 227.629 132.123C227.862 131.861 227.994 131.505 227.995 131.134V119.11C227.994 118.738 227.863 118.381 227.63 118.118C227.396 117.855 227.081 117.707 226.751 117.706Z" fill="#6C63FF"/>
<path d="M226.751 138.196H216.099C215.769 138.196 215.453 138.344 215.219 138.608C214.986 138.871 214.855 139.228 214.855 139.6V151.619C214.855 151.803 214.887 151.986 214.949 152.157C215.011 152.327 215.103 152.482 215.219 152.612C215.334 152.743 215.471 152.846 215.622 152.917C215.774 152.987 215.935 153.023 216.099 153.023H226.751C227.081 153.023 227.397 152.875 227.63 152.611C227.864 152.348 227.995 151.991 227.995 151.619V139.6C227.994 139.228 227.863 138.872 227.63 138.609C227.396 138.346 227.081 138.197 226.751 138.196Z" fill="#6C63FF"/>
<path d="M226.751 158.687H216.099C215.838 158.687 215.584 158.78 215.373 158.952C215.161 159.125 215.004 159.368 214.922 159.648C214.878 159.79 214.855 159.94 214.855 160.091V172.11C214.855 172.294 214.886 172.477 214.949 172.647C215.011 172.818 215.103 172.973 215.218 173.103C215.334 173.233 215.471 173.337 215.622 173.407C215.774 173.478 215.935 173.514 216.099 173.513H226.751C227.081 173.513 227.397 173.365 227.63 173.102C227.864 172.839 227.995 172.482 227.995 172.11V160.091C227.994 159.719 227.863 159.362 227.63 159.099C227.396 158.836 227.081 158.688 226.751 158.687Z" fill="#6C63FF"/>
<path d="M226.751 179.177H216.099C215.935 179.177 215.774 179.213 215.622 179.283C215.471 179.354 215.334 179.457 215.219 179.588C215.103 179.718 215.011 179.873 214.949 180.043C214.887 180.214 214.855 180.397 214.855 180.581V192.6C214.855 192.785 214.887 192.967 214.949 193.138C215.011 193.308 215.103 193.463 215.219 193.594C215.334 193.724 215.471 193.827 215.622 193.898C215.774 193.968 215.935 194.004 216.099 194.004H226.751C227.081 194.004 227.397 193.856 227.63 193.593C227.864 193.329 227.995 192.972 227.995 192.6V180.581C227.995 180.209 227.864 179.852 227.63 179.589C227.397 179.325 227.081 179.177 226.751 179.177Z" fill="#E6E6E6"/>
<path d="M249.126 97.2151H238.475C238.145 97.2153 237.828 97.3633 237.595 97.6265C237.362 97.8897 237.231 98.2467 237.231 98.6189V110.643C237.231 110.827 237.263 111.009 237.326 111.179C237.388 111.349 237.48 111.504 237.596 111.634C237.711 111.763 237.848 111.866 237.999 111.936C238.15 112.006 238.312 112.042 238.475 112.042H249.126C249.456 112.042 249.771 111.895 250.005 111.633C250.238 111.37 250.37 111.015 250.371 110.643V98.6189C250.37 98.2469 250.238 97.8905 250.005 97.6275C249.772 97.3644 249.456 97.2162 249.126 97.2151Z" fill="#6F6AC8"/>
<path d="M249.126 117.706H238.475C238.145 117.706 237.828 117.854 237.595 118.117C237.362 118.38 237.231 118.737 237.231 119.11V131.134C237.231 131.318 237.263 131.5 237.326 131.67C237.388 131.84 237.48 131.994 237.596 132.124C237.711 132.254 237.848 132.357 237.999 132.427C238.15 132.497 238.312 132.533 238.475 132.532H249.126C249.456 132.532 249.771 132.385 250.005 132.123C250.238 131.861 250.37 131.505 250.371 131.134V119.11C250.37 118.738 250.238 118.381 250.005 118.118C249.772 117.855 249.456 117.707 249.126 117.706Z" fill="#090285"/>
<path d="M249.126 138.196H238.475C238.145 138.196 237.828 138.344 237.595 138.608C237.362 138.871 237.231 139.228 237.231 139.6V151.619C237.23 151.803 237.262 151.986 237.325 152.157C237.387 152.327 237.479 152.482 237.594 152.612C237.71 152.743 237.847 152.846 237.998 152.917C238.149 152.987 238.311 153.023 238.475 153.023H249.126C249.456 153.023 249.773 152.875 250.006 152.611C250.239 152.348 250.37 151.991 250.371 151.619V139.6C250.37 139.228 250.238 138.872 250.005 138.609C249.772 138.346 249.456 138.197 249.126 138.196Z" fill="#E6E6E6"/>
<path d="M249.126 158.687H238.475C238.145 158.687 237.828 158.835 237.595 159.098C237.362 159.361 237.231 159.718 237.231 160.091V172.11C237.23 172.294 237.262 172.477 237.325 172.647C237.387 172.818 237.479 172.973 237.594 173.103C237.71 173.233 237.847 173.337 237.998 173.407C238.149 173.478 238.311 173.514 238.475 173.513H249.126C249.456 173.513 249.773 173.365 250.006 173.102C250.239 172.839 250.37 172.482 250.371 172.11V160.091C250.37 159.719 250.238 159.362 250.005 159.099C249.772 158.836 249.456 158.688 249.126 158.687Z" fill="#6C63FF"/>
<path d="M249.126 179.177H238.475C238.311 179.177 238.149 179.213 237.998 179.283C237.847 179.354 237.71 179.457 237.594 179.588C237.479 179.718 237.387 179.873 237.325 180.043C237.262 180.214 237.23 180.397 237.231 180.581V192.6C237.23 192.785 237.262 192.967 237.325 193.138C237.387 193.308 237.479 193.463 237.594 193.594C237.71 193.724 237.847 193.827 237.998 193.898C238.149 193.968 238.311 194.004 238.475 194.004H249.126C249.456 194.004 249.773 193.856 250.006 193.593C250.239 193.329 250.37 192.972 250.371 192.6V180.581C250.37 180.209 250.239 179.852 250.006 179.589C249.773 179.325 249.456 179.177 249.126 179.177Z" fill="#6C63FF"/>
<path d="M271.502 97.2151H260.85C260.52 97.2153 260.204 97.3633 259.971 97.6265C259.737 97.8897 259.606 98.2466 259.606 98.6189V110.643C259.606 110.827 259.639 111.01 259.701 111.179C259.764 111.349 259.856 111.504 259.971 111.634C260.087 111.763 260.224 111.866 260.375 111.936C260.525 112.006 260.687 112.042 260.85 112.042H271.502C271.831 112.042 272.147 111.895 272.38 111.633C272.614 111.37 272.745 111.015 272.746 110.643V98.6189C272.745 98.2469 272.614 97.8905 272.381 97.6275C272.148 97.3644 271.832 97.2162 271.502 97.2151Z" fill="#6C63FF"/>
<path d="M271.502 117.706H260.85C260.52 117.706 260.204 117.854 259.971 118.117C259.737 118.38 259.606 118.737 259.606 119.11V131.134C259.606 131.318 259.639 131.5 259.701 131.67C259.764 131.84 259.856 131.994 259.971 132.124C260.087 132.254 260.224 132.357 260.375 132.427C260.525 132.497 260.687 132.533 260.85 132.532H271.502C271.831 132.532 272.147 132.385 272.38 132.123C272.614 131.861 272.745 131.505 272.746 131.134V119.11C272.745 118.738 272.614 118.381 272.381 118.118C272.148 117.855 271.832 117.707 271.502 117.706Z" fill="white"/>
<path d="M271.502 138.196H260.85C260.52 138.196 260.204 138.344 259.971 138.608C259.737 138.871 259.606 139.228 259.606 139.6V151.619C259.606 151.803 259.638 151.986 259.7 152.157C259.763 152.327 259.854 152.482 259.97 152.612C260.085 152.743 260.223 152.846 260.374 152.917C260.525 152.987 260.687 153.023 260.85 153.023H271.502C271.832 153.023 272.148 152.875 272.382 152.611C272.615 152.348 272.746 151.991 272.746 151.619V139.6C272.745 139.228 272.614 138.872 272.381 138.609C272.148 138.346 271.832 138.197 271.502 138.196Z" fill="white"/>
<path d="M271.502 158.687H260.85C260.52 158.687 260.204 158.835 259.971 159.098C259.737 159.361 259.606 159.718 259.606 160.091V172.11C259.606 172.294 259.638 172.477 259.7 172.647C259.763 172.818 259.854 172.973 259.97 173.103C260.085 173.233 260.223 173.337 260.374 173.407C260.525 173.478 260.687 173.514 260.85 173.513H271.502C271.832 173.513 272.148 173.365 272.382 173.102C272.615 172.839 272.746 172.482 272.746 172.11V160.091C272.745 159.719 272.614 159.362 272.381 159.099C272.148 158.836 271.832 158.688 271.502 158.687Z" fill="#E6E6E6"/>
<path d="M271.502 179.177H260.85C260.687 179.177 260.525 179.213 260.374 179.283C260.223 179.354 260.085 179.457 259.97 179.588C259.854 179.718 259.763 179.873 259.7 180.043C259.638 180.214 259.606 180.397 259.606 180.581V192.6C259.606 192.785 259.638 192.967 259.7 193.138C259.763 193.308 259.854 193.463 259.97 193.594C260.085 193.724 260.223 193.827 260.374 193.898C260.525 193.968 260.687 194.004 260.85 194.004H271.502C271.832 194.004 272.148 193.856 272.382 193.593C272.615 193.329 272.746 192.972 272.746 192.6V180.581C272.746 180.209 272.615 179.852 272.382 179.589C272.148 179.325 271.832 179.177 271.502 179.177Z" fill="#6C63FF"/>
<path d="M293.878 97.2151H283.221C282.892 97.2164 282.577 97.3649 282.344 97.628C282.112 97.8912 281.982 98.2475 281.982 98.6189V110.643C281.982 111.014 282.112 111.37 282.345 111.632C282.577 111.894 282.892 112.042 283.221 112.042H293.878C294.207 112.042 294.523 111.895 294.756 111.633C294.989 111.37 295.121 111.015 295.122 110.643V98.6189C295.121 98.2469 294.989 97.8905 294.756 97.6275C294.523 97.3644 294.207 97.2162 293.878 97.2151Z" fill="white"/>
<path d="M293.878 117.706H283.221C282.892 117.707 282.577 117.855 282.344 118.119C282.112 118.382 281.982 118.738 281.982 119.109V131.134C281.982 131.505 282.112 131.86 282.345 132.123C282.577 132.385 282.892 132.532 283.221 132.532H293.878C294.207 132.532 294.523 132.385 294.756 132.123C294.989 131.861 295.121 131.505 295.122 131.134V119.109C295.121 118.738 294.99 118.381 294.756 118.118C294.523 117.855 294.207 117.707 293.878 117.706Z" fill="white"/>
<path d="M293.878 138.196H283.221C282.892 138.197 282.577 138.346 282.344 138.609C282.112 138.872 281.982 139.229 281.982 139.6V151.619C281.981 151.803 282.013 151.985 282.075 152.156C282.137 152.326 282.228 152.481 282.343 152.611C282.459 152.741 282.595 152.845 282.746 152.915C282.896 152.986 283.058 153.023 283.221 153.023H293.878C294.208 153.023 294.524 152.875 294.757 152.611C294.991 152.348 295.122 151.991 295.122 151.619V139.6C295.121 139.228 294.99 138.872 294.756 138.609C294.523 138.346 294.207 138.197 293.878 138.196Z" fill="white"/>
<path d="M293.878 158.687H283.221C282.892 158.688 282.577 158.837 282.344 159.1C282.112 159.363 281.982 159.719 281.982 160.091V172.11C281.981 172.294 282.013 172.476 282.075 172.646C282.137 172.816 282.228 172.971 282.343 173.101C282.459 173.232 282.595 173.335 282.746 173.406C282.896 173.477 283.058 173.513 283.221 173.513H293.878C294.208 173.513 294.524 173.365 294.757 173.102C294.991 172.839 295.122 172.482 295.122 172.11V160.091C295.121 159.719 294.99 159.362 294.756 159.099C294.523 158.836 294.207 158.688 293.878 158.687Z" fill="#968FFF"/>
<path d="M293.878 179.177H283.221C283.058 179.177 282.896 179.214 282.746 179.285C282.595 179.355 282.459 179.459 282.343 179.589C282.228 179.72 282.137 179.874 282.075 180.045C282.013 180.215 281.981 180.397 281.982 180.581V192.6C281.981 192.784 282.013 192.966 282.075 193.137C282.137 193.307 282.228 193.462 282.343 193.592C282.459 193.722 282.595 193.826 282.746 193.897C282.896 193.967 283.058 194.004 283.221 194.004H293.878C294.208 194.004 294.524 193.856 294.757 193.593C294.991 193.329 295.122 192.972 295.122 192.6V180.581C295.122 180.209 294.991 179.852 294.757 179.589C294.524 179.325 294.208 179.177 293.878 179.177Z" fill="#E6E6E6"/>
<path d="M316.253 97.2151H305.597C305.268 97.2164 304.952 97.3649 304.72 97.628C304.488 97.8912 304.357 98.2475 304.357 98.6189V110.643C304.357 111.014 304.488 111.37 304.72 111.632C304.953 111.894 305.268 112.042 305.597 112.042H316.253C316.583 112.042 316.898 111.895 317.132 111.633C317.365 111.37 317.496 111.015 317.498 110.643V98.6189C317.497 98.2469 317.365 97.8905 317.132 97.6275C316.899 97.3645 316.583 97.2162 316.253 97.2151Z" fill="white"/>
<path d="M316.253 117.706H305.597C305.268 117.707 304.952 117.855 304.72 118.119C304.488 118.382 304.357 118.738 304.357 119.109V131.134C304.357 131.505 304.488 131.86 304.72 132.123C304.953 132.385 305.268 132.532 305.597 132.532H316.253C316.583 132.532 316.898 132.385 317.132 132.123C317.365 131.861 317.496 131.505 317.498 131.134V119.109C317.497 118.738 317.365 118.381 317.132 118.118C316.899 117.855 316.583 117.707 316.253 117.706Z" fill="white"/>
<path d="M316.253 138.196H305.597C305.268 138.197 304.952 138.346 304.72 138.609C304.488 138.872 304.357 139.229 304.357 139.6V151.619C304.357 151.803 304.389 151.985 304.451 152.156C304.513 152.326 304.604 152.481 304.719 152.611C304.834 152.741 304.971 152.845 305.121 152.915C305.272 152.986 305.434 153.023 305.597 153.023H316.253C316.583 153.023 316.9 152.875 317.133 152.611C317.366 152.348 317.497 151.991 317.498 151.619V139.6C317.497 139.228 317.365 138.872 317.132 138.609C316.899 138.346 316.583 138.197 316.253 138.196Z" fill="#63DAFF"/>
<path d="M316.253 158.687H305.597C305.268 158.688 304.952 158.837 304.72 159.1C304.488 159.363 304.357 159.719 304.357 160.091V172.11C304.357 172.294 304.389 172.476 304.451 172.646C304.513 172.816 304.604 172.971 304.719 173.101C304.834 173.232 304.971 173.335 305.121 173.406C305.272 173.477 305.434 173.513 305.597 173.513H316.253C316.583 173.513 316.9 173.365 317.133 173.102C317.366 172.839 317.497 172.482 317.498 172.11V160.091C317.497 159.719 317.365 159.362 317.132 159.099C316.899 158.836 316.583 158.688 316.253 158.687Z" fill="#E6E6E6"/>
<path d="M316.253 179.177H305.597C305.434 179.177 305.272 179.214 305.121 179.285C304.971 179.355 304.834 179.459 304.719 179.589C304.604 179.72 304.513 179.874 304.451 180.045C304.389 180.215 304.357 180.397 304.357 180.581V192.6C304.357 192.784 304.389 192.966 304.451 193.137C304.513 193.307 304.604 193.462 304.719 193.592C304.834 193.722 304.971 193.826 305.121 193.897C305.272 193.967 305.434 194.004 305.597 194.004H316.253C316.583 194.004 316.9 193.856 317.133 193.593C317.366 193.329 317.497 192.972 317.498 192.6V180.581C317.497 180.209 317.366 179.852 317.133 179.589C316.9 179.325 316.583 179.177 316.253 179.177Z" fill="white"/>
<path d="M338.629 97.2151H327.972C327.643 97.2164 327.328 97.3649 327.096 97.628C326.863 97.8912 326.733 98.2475 326.733 98.6189V110.643C326.733 111.014 326.864 111.37 327.096 111.632C327.328 111.894 327.644 112.042 327.972 112.042H338.629C338.958 112.042 339.274 111.895 339.507 111.633C339.74 111.37 339.872 111.015 339.873 110.643V98.6189C339.872 98.2469 339.741 97.8905 339.508 97.6275C339.274 97.3645 338.959 97.2162 338.629 97.2151Z" fill="#6C63FF"/>
<path d="M338.629 117.706H327.972C327.643 117.707 327.328 117.855 327.096 118.119C326.863 118.382 326.733 118.738 326.733 119.109V131.134C326.733 131.505 326.864 131.86 327.096 132.123C327.328 132.385 327.644 132.532 327.972 132.532H338.629C338.958 132.532 339.274 132.385 339.507 132.123C339.74 131.861 339.872 131.505 339.873 131.134V119.109C339.872 118.738 339.741 118.381 339.508 118.118C339.274 117.855 338.959 117.707 338.629 117.706Z" fill="#369DFC"/>
<path d="M338.629 138.196H327.972C327.643 138.197 327.328 138.346 327.096 138.609C326.863 138.872 326.733 139.229 326.733 139.6V151.619C326.732 151.803 326.764 151.985 326.826 152.156C326.888 152.326 326.98 152.481 327.095 152.611C327.21 152.741 327.347 152.845 327.497 152.915C327.648 152.986 327.809 153.023 327.972 153.023H338.629C338.959 153.023 339.275 152.875 339.508 152.611C339.742 152.348 339.873 151.991 339.873 151.619V139.6C339.872 139.228 339.741 138.872 339.508 138.609C339.274 138.346 338.959 138.197 338.629 138.196Z" fill="#E6E6E6"/>
<path d="M338.629 158.687H327.972C327.643 158.688 327.328 158.837 327.096 159.1C326.863 159.363 326.733 159.719 326.733 160.091V172.11C326.732 172.294 326.764 172.476 326.826 172.646C326.888 172.816 326.98 172.971 327.095 173.101C327.21 173.232 327.347 173.335 327.497 173.406C327.648 173.477 327.809 173.513 327.972 173.513H338.629C338.959 173.513 339.275 173.365 339.508 173.102C339.742 172.839 339.873 172.482 339.873 172.11V160.091C339.872 159.719 339.741 159.362 339.508 159.099C339.274 158.836 338.959 158.688 338.629 158.687Z" fill="white"/>
<path d="M338.629 179.177H327.972C327.809 179.177 327.648 179.214 327.497 179.285C327.347 179.355 327.21 179.459 327.095 179.589C326.98 179.72 326.888 179.874 326.826 180.045C326.764 180.215 326.732 180.397 326.733 180.581V192.6C326.732 192.784 326.764 192.966 326.826 193.137C326.888 193.307 326.98 193.462 327.095 193.592C327.21 193.722 327.347 193.826 327.497 193.897C327.648 193.967 327.809 194.004 327.972 194.004H338.629C338.959 194.004 339.275 193.856 339.508 193.593C339.742 193.329 339.873 192.972 339.873 192.6V180.581C339.873 180.209 339.742 179.852 339.508 179.589C339.275 179.325 338.959 179.177 338.629 179.177Z" fill="#6C63FF"/>
<path d="M361.005 97.2151H350.348C350.019 97.2164 349.703 97.3649 349.471 97.628C349.239 97.8912 349.108 98.2475 349.109 98.6189V110.643C349.109 111.014 349.239 111.37 349.472 111.632C349.704 111.894 350.019 112.042 350.348 112.042H361.005C361.334 112.042 361.65 111.895 361.883 111.633C362.116 111.37 362.248 111.015 362.249 110.643V98.6189C362.248 98.2469 362.116 97.8905 361.883 97.6275C361.65 97.3645 361.334 97.2162 361.005 97.2151Z" fill="#6C63FF"/>
<path d="M361.005 117.706H350.348C350.019 117.707 349.703 117.855 349.471 118.119C349.239 118.382 349.108 118.738 349.109 119.109V131.134C349.109 131.505 349.239 131.86 349.472 132.123C349.704 132.385 350.019 132.532 350.348 132.532H361.005C361.334 132.532 361.65 132.385 361.883 132.123C362.116 131.861 362.248 131.505 362.249 131.134V119.109C362.248 118.738 362.116 118.381 361.883 118.118C361.65 117.855 361.334 117.707 361.005 117.706Z" fill="#6C63FF"/>
<path d="M361.005 138.196H350.348C350.019 138.197 349.703 138.346 349.471 138.609C349.239 138.872 349.108 139.229 349.109 139.6V151.619C349.108 151.803 349.14 151.985 349.202 152.156C349.264 152.326 349.355 152.481 349.47 152.611C349.585 152.741 349.722 152.845 349.873 152.915C350.023 152.986 350.185 153.023 350.348 153.023H361.005C361.334 153.023 361.651 152.875 361.884 152.611C362.117 152.348 362.249 151.991 362.249 151.619V139.6C362.248 139.228 362.116 138.872 361.883 138.609C361.65 138.346 361.334 138.197 361.005 138.196Z" fill="#E6E6E6"/>
<path d="M361.005 158.687H350.348C350.019 158.688 349.703 158.837 349.471 159.1C349.239 159.363 349.108 159.719 349.109 160.091V172.11C349.108 172.294 349.14 172.476 349.202 172.646C349.264 172.816 349.355 172.971 349.47 173.101C349.585 173.232 349.722 173.335 349.873 173.406C350.023 173.477 350.185 173.513 350.348 173.513H361.005C361.334 173.513 361.651 173.365 361.884 173.102C362.117 172.839 362.249 172.482 362.249 172.11V160.091C362.248 159.719 362.116 159.362 361.883 159.099C361.65 158.836 361.334 158.688 361.005 158.687Z" fill="#0C0494"/>
<path d="M361.005 179.177H350.348C350.185 179.177 350.023 179.214 349.873 179.285C349.722 179.355 349.585 179.459 349.47 179.589C349.355 179.72 349.264 179.874 349.202 180.045C349.14 180.215 349.108 180.397 349.109 180.581V192.6C349.108 192.784 349.14 192.966 349.202 193.137C349.264 193.307 349.355 193.462 349.47 193.592C349.585 193.722 349.722 193.826 349.873 193.897C350.023 193.967 350.185 194.004 350.348 194.004H361.005C361.335 194.004 361.651 193.856 361.884 193.593C362.117 193.329 362.249 192.972 362.249 192.6V180.581C362.249 180.209 362.117 179.852 361.884 179.589C361.651 179.325 361.334 179.177 361.005 179.177Z" fill="#1406F7"/>
<path d="M383.38 97.2151H372.724C372.394 97.2164 372.079 97.3649 371.847 97.628C371.614 97.8912 371.484 98.2475 371.484 98.6189V110.643C371.484 111.014 371.615 111.37 371.847 111.632C372.08 111.894 372.395 112.042 372.724 112.042H383.38C383.709 112.042 384.025 111.895 384.258 111.633C384.492 111.37 384.623 111.015 384.624 110.643V98.6189C384.623 98.2469 384.492 97.8905 384.259 97.6275C384.026 97.3645 383.71 97.2162 383.38 97.2151Z" fill="#00C2FF"/>
<path d="M383.38 117.706H372.724C372.394 117.707 372.079 117.855 371.847 118.119C371.614 118.382 371.484 118.738 371.484 119.109V131.134C371.484 131.505 371.615 131.86 371.847 132.123C372.08 132.385 372.395 132.532 372.724 132.532H383.38C383.709 132.532 384.025 132.385 384.258 132.123C384.492 131.861 384.623 131.505 384.624 131.134V119.109C384.623 118.738 384.492 118.381 384.259 118.118C384.026 117.855 383.71 117.707 383.38 117.706Z" fill="#6C63FF"/>
<path d="M383.38 138.196H372.724C372.394 138.197 372.079 138.346 371.847 138.609C371.614 138.872 371.484 139.229 371.484 139.6V151.619C371.484 151.803 371.515 151.985 371.578 152.156C371.64 152.326 371.731 152.481 371.846 152.611C371.961 152.741 372.098 152.845 372.248 152.915C372.399 152.986 372.56 153.023 372.724 153.023H383.38C383.71 153.023 384.026 152.875 384.26 152.611C384.493 152.348 384.624 151.991 384.624 151.619V139.6C384.623 139.228 384.492 138.872 384.259 138.609C384.026 138.346 383.71 138.197 383.38 138.196Z" fill="#1A72F4"/>
<path d="M383.38 158.687H372.724C372.394 158.688 372.079 158.837 371.847 159.1C371.614 159.363 371.484 159.719 371.484 160.091V172.11C371.484 172.294 371.515 172.476 371.578 172.646C371.64 172.816 371.731 172.971 371.846 173.101C371.961 173.232 372.098 173.335 372.248 173.406C372.399 173.477 372.56 173.513 372.724 173.513H383.38C383.71 173.513 384.026 173.365 384.26 173.102C384.493 172.839 384.624 172.482 384.624 172.11V160.091C384.623 159.719 384.492 159.362 384.259 159.099C384.026 158.836 383.71 158.688 383.38 158.687Z" fill="#6C63FF"/>
<path d="M383.38 179.177H372.724C372.56 179.177 372.399 179.214 372.248 179.285C372.098 179.355 371.961 179.459 371.846 179.589C371.731 179.72 371.64 179.874 371.578 180.045C371.515 180.215 371.484 180.397 371.484 180.581V192.6C371.484 192.784 371.515 192.966 371.578 193.137C371.64 193.307 371.731 193.462 371.846 193.592C371.961 193.722 372.098 193.826 372.248 193.897C372.399 193.967 372.56 194.004 372.724 194.004H383.38C383.71 194.004 384.026 193.856 384.26 193.593C384.493 193.329 384.624 192.972 384.624 192.6V180.581C384.624 180.209 384.493 179.852 384.26 179.589C384.026 179.325 383.71 179.177 383.38 179.177Z" fill="#E6E6E6"/>
<path d="M160.828 356.385H160.532L160.785 356.347L160.828 356.385Z" fill="#2F2E41"/>
<path d="M136.133 136.31C154.189 136.31 168.826 119.794 168.826 99.4205C168.826 79.0471 154.189 62.5311 136.133 62.5311C118.077 62.5311 103.44 79.0471 103.44 99.4205C103.44 119.794 118.077 136.31 136.133 136.31Z" fill="#FFB6B6"/>
<path d="M164.764 71.3267C164.764 71.3267 173.315 52.882 154.502 51.2052C154.502 51.2052 138.465 34.79 122.118 48.2043C122.118 48.2043 113.202 48.2043 108.326 59.5892C108.326 59.5892 101.313 56.5882 99.7721 64.6195C99.7721 64.6195 94.6407 81.3875 99.7721 96.4786C104.904 111.57 106.608 113.246 106.608 113.246C106.608 113.246 98.176 81.6071 118.7 79.9303C139.224 78.2535 162.191 63.7812 163.902 82.2258C165.612 100.67 168.186 105.215 168.186 105.215C168.186 105.215 184.432 78.8723 164.764 71.3267Z" fill="#2F2E41"/>
<path d="M219.903 186.337L219.798 186.963L218.616 194.004L210.448 242.706L209.964 245.573L208.95 251.637L207.562 259.908L204.485 278.239L203.605 283.493L203.275 285.464L203.16 286.155L202.246 291.592L201.968 293.233L199.738 311.877L197.791 328.124L204.308 335.478L200.423 339.862L197.872 356.346L197.877 356.384H93.7844C89.5733 353.306 85.423 350.133 81.3332 346.865L82.1898 339.63C82.1898 339.63 85.1374 326.709 83.898 325.165C82.6635 323.621 79.955 320.862 79.955 320.862L83.3669 311.877L83.8407 310.63L83.0463 292.04L83.0272 291.592L82.764 285.463L82.7305 284.675L82.6779 283.493L81.6682 259.908L81.649 259.52L81.3428 252.371L81.0557 245.573L80.9313 242.706L79.7015 214.019L78.8689 194.538L78.1415 177.579L81.0653 176.461L112.337 164.469L125.29 145.469L152.25 145.696L165.448 145.809L187.469 168.854L192.479 171.553L192.518 171.575L196.111 173.513L205.222 178.421L214.855 183.616L219.798 186.277L219.903 186.337Z" fill="#CACACA"/>
<path d="M128.774 301.041C126.799 301.905 124.679 302.269 122.565 302.109C120.451 301.948 118.394 301.266 116.539 300.112C114.684 298.957 113.076 297.358 111.828 295.426C110.58 293.494 109.722 291.277 109.316 288.931L58.325 280.768L76.0508 258.144L121.755 269.364C125.293 268.854 128.874 269.827 131.819 272.098C134.765 274.369 136.869 277.78 137.734 281.685C138.6 285.589 138.165 289.716 136.514 293.284C134.863 296.852 132.109 299.612 128.774 301.041V301.041Z" fill="#FFB6B6"/>
<path d="M106.039 259.908C105.095 258.557 103.758 257.626 102.264 257.279L81.3428 252.371L79.1942 251.869C77.9456 251.575 76.7661 250.987 75.7328 250.143C74.6996 249.299 73.8359 248.218 73.1983 246.971C72.537 245.663 72.1369 244.207 72.026 242.706C71.9262 241.341 72.0711 239.968 72.4518 238.667L79.7014 214.019L84.4053 198.026C84.9753 196.098 85.3118 194.091 85.4054 192.06C85.6675 186.441 84.1267 180.903 81.0652 176.461C78.3737 172.557 74.6406 169.733 70.4174 168.407C66.1942 167.081 61.705 167.323 57.6129 169.097C57.4933 169.145 57.3689 169.199 57.2492 169.253C54.3146 170.575 51.6927 172.65 49.5907 175.312C47.4887 177.974 45.9643 181.151 45.1379 184.593L40.0273 205.569L29.4855 248.813C28.4302 253.145 28.217 257.684 28.8605 262.118C29.504 266.552 30.9889 270.777 33.2138 274.504C35.4386 278.231 38.3507 281.371 41.7509 283.71C45.151 286.049 48.9589 287.531 52.9138 288.055L83.0463 292.04L96.9903 293.887C98.6028 294.105 100.229 293.63 101.545 292.557C102.861 291.483 103.77 289.889 104.092 288.093C104.114 287.995 104.132 287.896 104.144 287.796L104.479 285.463L107.317 265.821L107.346 265.621C107.493 264.619 107.454 263.592 107.229 262.609C107.004 261.625 106.598 260.705 106.039 259.908Z" fill="#CACACA"/>
<path d="M161.253 301.671C163.317 302.212 165.461 302.235 167.533 301.74C169.606 301.244 171.557 300.242 173.25 298.804C174.942 297.366 176.334 295.526 177.328 293.415C178.323 291.304 178.894 288.973 179.004 286.585L228.464 270.391L208.088 250.813L164.243 269.193C160.677 269.252 157.253 270.785 154.621 273.501C151.989 276.218 150.332 279.93 149.963 283.933C149.594 287.937 150.54 291.954 152.621 295.223C154.702 298.492 157.773 300.786 161.253 301.671V301.671Z" fill="#FFB6B6"/>
<path d="M253.022 234.164L229.497 173.076C227.573 168.061 224.137 163.977 219.798 161.548C218.457 160.803 217.048 160.224 215.597 159.821C215.372 159.756 215.147 159.696 214.922 159.648C211.844 158.89 208.651 158.957 205.6 159.842C202.811 160.651 200.205 162.113 197.95 164.135C195.696 166.157 193.845 168.692 192.517 171.575C192.503 171.599 192.49 171.624 192.479 171.651C190.996 174.887 190.208 178.472 190.177 182.115C190.146 185.758 190.874 189.359 192.302 192.627L192.594 193.286L209.218 230.957C209.785 232.245 210.105 233.654 210.156 235.092C210.207 236.529 209.989 237.963 209.514 239.298C209.04 240.633 208.32 241.84 207.403 242.84C206.486 243.839 205.392 244.609 204.193 245.098L203.026 245.573L182.028 254.131C180.453 254.765 179.157 256.065 178.413 257.756C177.67 259.447 177.537 261.397 178.042 263.197L178.095 263.386L183.981 284.637C184.009 284.735 184.038 284.832 184.072 284.929C184.123 285.112 184.187 285.291 184.263 285.464C184.888 287.047 185.994 288.326 187.381 289.071C188.768 289.816 190.345 289.979 191.828 289.529L203.16 286.155L205.471 285.464L234.732 276.744C238.583 275.596 242.168 273.522 245.242 270.666C248.316 267.809 250.807 264.237 252.544 260.193C254.28 256.15 255.222 251.73 255.305 247.238C255.387 242.745 254.608 238.286 253.022 234.164L253.022 234.164Z" fill="#CACACA"/>
<path d="M21.4211 289.005C28.5444 298.362 36.2267 307.209 44.4192 315.489H271.62C273.809 315.493 275.908 316.431 277.455 318.099C279.002 319.766 279.873 322.027 279.875 324.384L280.201 386.387C294.179 379.472 307.268 370.641 319.145 360.115C322.443 357.197 325.638 354.152 328.731 350.982C330.757 348.914 332.734 346.795 334.663 344.626C349.122 328.404 360.831 309.579 369.258 289.005H21.4211Z" fill="#2E2D37"/>
<path d="M319.665 340.936C317.832 343.102 315.95 345.215 314.019 347.275H267.98V340.936H319.665Z" fill="white"/>
<path d="M219.473 138.196C219.245 137.723 218.909 137.327 218.498 137.051C218.088 136.776 217.62 136.63 217.142 136.63H60.2639C59.5606 136.632 58.8866 136.949 58.3897 137.511C57.8928 138.072 57.6135 138.833 57.6129 139.627V245.573H219.798V139.627C219.8 139.126 219.688 138.634 219.473 138.196Z" fill="#2E2D37"/>
<path d="M57.4709 242.705V255.779C57.4709 256.321 57.5655 256.857 57.7493 257.358C57.9331 257.859 58.2025 258.314 58.5422 258.697C58.8818 259.08 59.2851 259.384 59.7288 259.592C60.1726 259.799 60.6483 259.906 61.1286 259.906H120.99V285.708H120.195C120.132 285.708 120.071 285.721 120.013 285.748C119.955 285.775 119.903 285.815 119.859 285.865C119.815 285.914 119.78 285.973 119.756 286.038C119.732 286.103 119.72 286.173 119.72 286.244V288.038C119.72 288.109 119.732 288.178 119.756 288.243C119.78 288.308 119.815 288.368 119.859 288.417C119.903 288.467 119.955 288.507 120.013 288.534C120.071 288.561 120.132 288.574 120.195 288.574H157.356C157.418 288.574 157.48 288.561 157.538 288.534C157.595 288.507 157.648 288.467 157.692 288.417C157.736 288.368 157.771 288.308 157.795 288.243C157.819 288.178 157.831 288.109 157.831 288.038V286.244C157.831 286.173 157.819 286.103 157.795 286.038C157.771 285.973 157.736 285.914 157.692 285.865C157.648 285.815 157.595 285.775 157.538 285.748C157.48 285.721 157.418 285.708 157.356 285.708H156.561V259.906H216.422C216.902 259.906 217.378 259.799 217.822 259.592C218.266 259.384 218.669 259.08 219.008 258.697C219.348 258.314 219.617 257.859 219.801 257.358C219.985 256.857 220.08 256.321 220.08 255.779V242.705H57.4709Z" fill="#2E2D37"/>
<path d="M138.15 204.882C147.164 204.882 154.471 197.381 154.471 188.128C154.471 178.875 147.164 171.374 138.15 171.374C129.137 171.374 121.83 178.875 121.83 188.128C121.83 197.381 129.137 204.882 138.15 204.882Z" fill="#28B0FD"/>
<path d="M175.78 96.3577H173.388C173.388 75.9481 155.486 62.5739 137.427 62.5631C134.8 62.5545 132.179 62.8421 129.603 63.4216C126.703 64.0749 123.693 64.8578 120.736 65.8783C109.074 69.9116 98.2598 77.7083 98.2598 96.3577C98.2573 99.9795 98.6658 103.587 99.4753 107.092L97.1592 107.772C96.3002 104.045 95.866 100.209 95.8672 96.3577C95.8672 80.0624 101.796 68.8696 112.036 62.196C117.42 58.6864 123.99 56.4241 131.517 55.3226C134.649 54.8524 137.816 54.7439 140.968 54.9986C161.736 56.6832 175.78 74.6523 175.78 96.3577Z" fill="#02CF9E"/>
<path d="M178.966 94.9042L178.023 87.0427C177.791 85.0574 176.943 83.2289 175.63 81.8809C174.788 81.0022 173.779 80.3511 172.681 79.9769C171.582 79.6028 170.423 79.5153 169.29 79.7212L167.792 79.9533C167.382 80.0142 166.987 80.1663 166.63 80.4008C166.273 80.6353 165.96 80.9475 165.711 81.3194C165.459 81.69 165.275 82.1132 165.169 82.5645C165.063 83.0158 165.037 83.4863 165.093 83.9489L167.271 102.058C167.36 102.796 167.654 103.484 168.109 104.024C168.564 104.563 169.158 104.928 169.807 105.066C169.999 105.109 170.195 105.131 170.391 105.131C170.532 105.131 170.672 105.12 170.812 105.098L172.487 104.844C173.508 104.691 174.49 104.305 175.374 103.708C176.258 103.111 177.024 102.316 177.626 101.373C177.755 101.167 177.88 100.957 177.994 100.741C178.891 98.9741 179.234 96.9176 178.966 94.9042Z" fill="#02CF9E"/>
<path d="M166.826 80.2827C166.386 80.5236 166.004 80.8789 165.711 81.3194C165.459 81.69 165.275 82.1132 165.169 82.5645C165.063 83.0158 165.037 83.4863 165.093 83.9489L167.271 102.058C167.36 102.796 167.654 103.484 168.109 104.024C168.564 104.563 169.158 104.928 169.807 105.066L166.826 80.2827Z" fill="white"/>
<path d="M177.946 94.9042L177.003 87.0427C176.771 85.0574 175.923 83.2289 174.61 81.8809L176.778 99.8986C176.811 100.188 176.877 100.471 176.974 100.741C177.871 98.9742 178.214 96.9177 177.946 94.9042Z" fill="#3F3D56"/>
<path d="M171.515 100.568C172.17 100.468 172.499 98.7102 172.25 96.6418C172.002 94.5733 171.269 92.9778 170.615 93.078C169.96 93.1782 169.631 94.9362 169.88 97.0047C170.128 99.0731 170.861 100.669 171.515 100.568Z" fill="#3F3D56"/>
<path d="M170.08 90.8496C170.734 90.7494 171.064 88.9914 170.815 86.9229C170.566 84.8545 169.834 83.2589 169.179 83.3592C168.525 83.4594 168.195 85.2174 168.444 87.2859C168.693 89.3543 169.425 90.9498 170.08 90.8496Z" fill="#3F3D56"/>
<path d="M179.172 94.6292C179.826 94.529 180.156 92.7709 179.907 90.7025C179.658 88.6341 178.926 87.0385 178.271 87.1387C177.616 87.2389 177.287 88.997 177.536 91.0654C177.785 93.1338 178.517 94.7294 179.172 94.6292Z" fill="#3F3D56"/>
<path d="M137.427 62.5631C134.8 62.5544 132.179 62.842 129.603 63.4216C126.703 64.0749 123.693 64.8578 120.736 65.8783C116.118 65.6245 112.721 64.2747 112.036 62.1959C117.42 58.6864 123.99 56.424 131.517 55.3226C134.649 54.8524 137.816 54.7438 140.968 54.9986C141.301 55.2193 141.59 55.5172 141.814 55.8727C142.039 56.2282 142.194 56.6332 142.269 57.0612C142.494 58.9402 140.595 60.9379 137.427 62.5631Z" fill="#3F3D56"/>
<path d="M106.878 115.093L103.193 97.8101C103.062 97.1866 102.77 96.6207 102.355 96.1836C101.939 95.7466 101.419 95.4577 100.858 95.3534C100.7 95.3256 100.54 95.3112 100.38 95.3102C100.154 95.3111 99.9291 95.3419 99.7098 95.402L98.2838 95.7908C96.4478 96.2918 94.8629 97.5942 93.877 99.4122C92.891 101.23 92.5846 103.415 93.0248 105.488L94.6757 113.241C95.0527 115.067 95.9504 116.702 97.231 117.896C97.4386 118.085 97.6559 118.26 97.8818 118.419C98.6839 118.987 99.5786 119.367 100.513 119.538C101.448 119.708 102.403 119.666 103.323 119.413L104.744 119.024C105.12 118.925 105.473 118.74 105.782 118.479C106.242 118.101 106.591 117.577 106.786 116.974C106.982 116.371 107.013 115.717 106.878 115.093Z" fill="#02CF9E"/>
<path d="M99.1536 111.878C99.7959 111.703 99.9658 109.917 99.533 107.887C99.1002 105.858 98.2285 104.354 97.5862 104.528C96.9438 104.703 96.774 106.489 97.2068 108.519C97.6396 110.548 98.5112 112.052 99.1536 111.878Z" fill="#3F3D56"/>
<path d="M93.5679 110.548C94.2102 110.374 94.3801 108.587 93.9473 106.558C93.5145 104.528 92.6428 103.025 92.0005 103.199C91.3581 103.373 91.1883 105.16 91.6211 107.19C92.0539 109.219 92.9255 110.723 93.5679 110.548Z" fill="#3F3D56"/>
<path d="M107.112 115.029L103.428 97.7453C103.284 97.0706 102.968 96.4587 102.517 95.9862C102.067 95.5137 101.503 95.2015 100.896 95.0888L105.926 118.695C106.422 118.284 106.8 117.717 107.011 117.065C107.223 116.412 107.258 115.704 107.112 115.029Z" fill="white"/>
<path d="M93.8575 102.065C93.7558 101.584 93.5649 101.133 93.2976 100.742C92.7796 102.255 92.6845 103.912 93.0248 105.488L94.6757 113.241C95.0527 115.067 95.9504 116.702 97.231 117.896L93.8575 102.065Z" fill="#3F3D56"/>
</g>
<defs>
<clipPath id="clip0_1_4">
<rect width="407" height="400" fill="white"/>
</clipPath>
</defs>
</svg>
