<svg width="88" height="88" viewBox="0 0 88 88" fill="none" xmlns="http://www.w3.org/2000/svg">
<path d="M84.625 44C84.625 21.5645 66.4355 3.375 44 3.375C21.5645 3.375 3.375 21.5645 3.375 44C3.375 66.4355 21.5645 84.625 44 84.625C66.4355 84.625 84.625 66.4355 84.625 44Z" stroke="#0057FF" stroke-width="5" stroke-miterlimit="10"/>
<path d="M81.0254 27.6211C77.8887 27.6407 78.1973 33.4278 74.2891 30.6973C72.8379 29.6856 71.9453 28.2149 70.1231 27.7676C68.5313 27.377 66.9004 27.7832 65.3282 28.0547C63.541 28.3633 61.4219 28.502 60.0664 29.8555C58.7559 31.1582 58.0625 32.9063 56.668 34.2168C53.9707 36.7559 52.8321 39.5274 54.5782 43.1172C56.2578 46.5684 59.7715 48.4415 63.5625 48.1954C67.2871 47.9473 71.1563 45.7872 71.0489 51.1993C71.0098 53.1133 71.4102 54.4415 71.9981 56.2208C72.543 57.8614 72.5059 59.4512 72.6309 61.1446C72.8614 64.3086 73.4434 67.8555 75.0137 70.6504L77.9434 66.5176C78.3047 66.0059 79.0606 65.2891 79.2403 64.6856C79.5586 63.6172 78.9317 61.7813 78.8594 60.584C78.7871 59.3868 78.8223 58.1739 78.6387 56.9766C78.3809 55.2989 77.3887 53.7266 77.252 52.0684C77 48.9805 77.5645 46.5157 75.1856 43.9336C72.8887 41.4434 69.5215 40.8457 66.3047 41.3516C64.6836 41.6055 58.1582 42.6485 60.7774 38.9434C61.2949 38.2149 62.1992 37.6172 62.7813 36.9239C63.2871 36.3204 63.7266 35.211 64.3203 34.7403C64.9141 34.2696 67.6407 33.7286 68.4219 33.9688C69.2032 34.209 70.0176 35.336 70.6953 35.836C71.9475 36.7791 73.4088 37.4063 74.9551 37.6641C77.6231 38.0547 83.2012 36.5039 83.1582 33.0821C83.1504 31.4414 81.627 29.1563 81.0254 27.6211V27.6211ZM50.1426 55.7774C49.1016 51.3946 43.1465 49.9297 39.9356 47.5528C38.0899 46.1856 36.4473 44.0743 34.0235 43.9024C32.9063 43.8223 31.9707 44.0645 30.8633 43.7774C29.8477 43.5157 29.0508 42.9688 27.9688 43.1114C25.9473 43.377 24.6719 45.5372 22.5 45.2442C20.4395 44.9668 18.3164 42.5567 17.8477 40.5938C17.2461 38.0704 19.2422 37.252 21.3809 37.0274C22.2735 36.9336 23.2754 36.8321 24.1328 37.1582C25.2617 37.5782 25.7949 38.6836 26.8086 39.2422C28.709 40.2832 29.0938 38.6192 28.8028 36.9317C28.3672 34.4043 27.8594 33.3731 30.1133 31.6348C31.6758 30.4356 33.0117 29.5684 32.7617 27.4141C32.6133 26.1485 31.9199 25.5762 32.5664 24.3164C33.0567 23.3575 34.4024 22.4922 35.2793 21.92C37.543 20.4434 44.9766 20.5528 41.9395 16.42C41.0469 15.2071 39.4004 13.0391 37.8379 12.7422C35.8848 12.3731 35.0176 14.5528 33.6563 15.5137C32.25 16.5078 29.5117 17.6368 28.1035 16.0996C26.209 14.0313 29.3594 13.3516 30.0567 11.9082C30.7539 10.4649 28.4414 7.73636 27.2031 7.04495L21.3809 13.5743C21.2136 14.6677 21.2719 15.7839 21.552 16.854C21.8321 17.9241 22.3282 18.9256 23.0098 19.7969C24.168 21.2871 26.0117 21.7657 26.0957 23.8008C26.1778 25.7539 25.8731 26.7539 24.5957 28.127C24.043 28.7129 23.6524 29.545 23.0899 30.0938C22.4004 30.7637 22.6563 30.5586 21.5801 30.7422C19.5567 31.084 17.834 31.6114 15.8789 32.1504C12.6211 33.0508 12.3203 27.7286 10.836 25.6407L5.95315 29.584C5.90041 30.2305 6.75393 31.42 6.98635 32.1231C8.32033 36.1407 11.0117 39.2481 12.75 43.0918C14.5801 47.1622 19.4942 46.0333 21.6641 49.5997C23.5899 52.7637 21.5332 56.7696 22.9746 60.0821C24.0215 62.4864 26.4903 63.0118 28.1934 64.7696C29.9336 66.545 29.8965 68.9747 30.1621 71.2852C30.4617 74.0029 30.9479 76.6968 31.6172 79.3477C31.8535 80.2637 32.0703 81.4747 32.6973 82.2305C33.127 82.7501 34.6016 83.1973 34.0059 83.3692C34.8379 83.5059 36.3203 84.2833 37.0137 83.7129C37.9278 82.9629 37.6836 80.6544 37.8418 79.6114C38.3164 76.5059 39.8711 73.4688 41.9688 71.1446C44.041 68.8516 46.8809 67.2989 48.6309 64.6993C50.336 62.1641 50.8496 58.7442 50.1426 55.7774V55.7774ZM43.6211 60.918C42.4492 63.0098 39.8399 64.4102 38.1621 66.0723C37.7071 66.5235 36.7383 68.086 36.168 67.7481C35.7598 67.5059 35.6211 65.4786 35.4707 65.0137C34.6949 62.673 33.2137 60.6297 31.2305 59.1641C30.6192 58.7012 29.1035 58.0997 28.7539 57.4649C28.3633 56.7754 28.7149 55.1485 28.7285 54.3985C28.75 53.3047 28.252 51.4864 28.5215 50.4922C28.834 49.3457 28.2324 50.0372 29.2578 49.8106C29.7989 49.6895 32.0332 50.0821 32.7071 50.2227C33.7774 50.4454 34.3672 51.1114 35.211 51.7852C37.4297 53.5645 39.8731 54.9415 42.3594 56.3047C44.2852 57.3711 44.8516 58.7208 43.6211 60.918ZM30.0274 7.10354C30.9532 8.00784 31.8242 9.07815 33.2051 9.168C34.5117 9.25589 35.7442 8.54886 36.8848 9.43753C38.1504 10.4141 39.0625 11.6504 40.7422 11.9551C42.3672 12.25 44.0879 11.3008 44.4903 9.6387C44.8809 8.05472 44.0391 6.33206 43.9883 4.74221C43.9883 4.52151 44.1074 3.54104 43.9551 3.37503C43.8418 3.25003 42.8965 3.39065 42.752 3.39456C41.6934 3.42581 40.6374 3.49872 39.584 3.61331C35.7438 4.02896 31.983 4.99252 28.416 6.47464C28.8907 6.80276 29.4864 6.93362 30.0274 7.10354V7.10354ZM63.6094 18.0762C65.2676 18.0762 66.9512 17.334 66.416 15.416C65.9668 13.8086 65.2012 12.0645 63.3379 12.9317C62.1524 13.4825 60.4727 14.8848 60.334 16.2754C60.1758 17.8535 62.5039 18.0762 63.6094 18.0762ZM62.2852 26.4688C63.9785 27.4825 66.4903 27.0059 67.7676 25.5586C68.7657 24.4258 69.3535 22.459 71.1485 22.461C71.9387 22.4593 72.6978 22.7687 73.2618 23.3223C74.0039 24.0899 73.8575 24.8106 74.0157 25.7715C74.3692 27.9297 76.6836 25.8946 77.2871 25.0586C77.6778 24.5137 78.2071 23.7051 78.0293 22.9961C77.8653 22.334 77.0918 21.6289 76.7481 21.0215C75.7442 19.2637 74.918 17.2188 73.4141 15.7989C71.9668 14.4317 70.1875 14.5899 68.8145 16.0098C67.6895 17.1817 66.3828 18.1094 65.6133 19.5352C65.0703 20.5371 64.459 21.0157 63.3594 21.2754C62.7539 21.418 62.0625 21.4707 61.5547 21.877C60.1407 22.9903 60.9453 25.6641 62.2852 26.4688V26.4688Z" fill="#0057FF"/>
</svg>
