<svg width="100" height="90" viewBox="0 0 100 90" fill="none" xmlns="http://www.w3.org/2000/svg">
<path d="M1.46484 41.0273C0.527344 42.082 0 43.5059 0 45V67.5C0 68.9941 0.527344 70.4215 1.46484 71.4762C2.40234 72.5309 3.67188 73.125 5 73.125H10V39.375H5C3.67188 39.375 2.40313 39.9727 1.46484 41.0273ZM72.5 16.875H55V5.625C55 2.52773 52.7531 0 50 0C47.2469 0 45 2.52773 45 5.625V16.875H27.5C20.5937 16.875 15 23.168 15 30.9375V78.75C15 84.9691 19.4719 90 25 90H75C80.5281 90 85 84.9691 85 78.75V30.9375C85 23.168 79.4219 16.875 72.5 16.875ZM40 73.125H30V67.5H40V73.125ZM35 52.0312C31.5469 52.0312 28.75 48.8848 28.75 45C28.75 41.1152 31.5469 37.9688 35 37.9688C38.4531 37.9688 41.25 41.1152 41.25 45C41.25 48.8848 38.4531 52.0312 35 52.0312ZM55 73.125H45V67.5H55V73.125ZM70 73.125H60V67.5H70V73.125ZM65 52.0312C61.5437 52.0312 58.75 48.8883 58.75 45C58.75 41.1117 61.5469 37.9688 65 37.9688C68.4531 37.9688 71.25 41.1152 71.25 45C71.25 48.8848 68.4531 52.0312 65 52.0312ZM98.5312 41.0273C97.5937 39.9727 96.3281 39.375 95 39.375H90V73.125H95C96.3281 73.125 97.5969 72.5317 98.5344 71.4771C99.4719 70.4224 100 68.9941 100 67.5V45C100 43.5059 99.4687 42.082 98.5312 41.0273Z" fill="#04C700"/>
</svg>
