<svg width="110" height="90" viewBox="0 0 110 90" fill="none" xmlns="http://www.w3.org/2000/svg">
<path d="M5.5 20.9883C2.21203 19.0547 0 15.4143 0 11.25C0 5.03613 4.92422 0 11 0C15.0717 0 18.6313 2.2623 20.5219 5.625H56.4781C58.3688 2.2623 61.9266 0 66 0C72.0672 0 77 5.03613 77 11.25C77 15.4143 74.7828 19.0547 71.5 20.9883V40.8867C74.7828 42.8203 77 46.459 77 50.625C77 56.8301 72.0672 61.875 66 61.875C61.9266 61.875 58.3688 59.6074 56.4781 56.25H20.5219C18.6313 59.6074 15.0717 61.875 11 61.875C4.92422 61.875 0 56.8301 0 50.625C0 46.459 2.21203 42.8203 5.5 40.8867V20.9883ZM16.5 20.9883V40.8867C18.1672 41.8711 19.5594 43.2949 20.5219 45H56.4781C57.4406 43.2949 58.8328 41.8711 60.5 40.8867V20.9883C58.8328 20.0039 57.4406 18.5801 56.4781 16.875H20.5219C19.5594 18.5801 18.1672 20.0039 16.5 20.9883ZM53.5219 84.375C51.6312 87.7324 48.0734 90 44 90C37.9328 90 33 84.9551 33 78.75C33 74.584 35.2172 70.9453 38.5 69.0117V61.875H49.5V69.0117C51.1672 69.9961 52.5594 71.4199 53.5219 73.125H89.4781C90.4406 71.4199 91.8328 69.9961 93.5 69.0117V49.1133C91.8328 48.1289 90.4406 46.7051 89.4781 44.8418H81.5547C80.6266 42.293 79.0453 39.9199 77 38.0391V33.5918H89.4781C91.3687 30.3926 94.9266 27.9668 99 27.9668C105.067 27.9668 110 33.1699 110 39.2168C110 43.541 107.783 47.1797 104.5 49.1133V69.0117C107.783 70.9453 110 74.584 110 78.75C110 84.9551 105.067 90 99 90C94.9266 90 91.3687 87.7324 89.4781 84.375H53.5219Z" fill="#FF5EDB"/>
</svg>
